<mxfile host="65bd71144e">
    <diagram id="diagram_late_processor_simple" name="LateRecordProcessor Flow (Simple)">
        <mxGraphModel dx="1421" dy="916" grid="0" gridSize="10" guides="1" tooltips="1" connect="1" arrows="1" fold="1" page="1" pageScale="1" pageWidth="1169" pageHeight="827" background="#ffffff" math="0" shadow="0">
            <root>
                <mxCell id="0"/>
                <mxCell id="1" parent="0"/>
                <mxCell id="title" value="LateRecordProcessor - Simplified Logic Flow" style="text;html=1;strokeColor=none;fillColor=none;align=center;verticalAlign=middle;whiteSpace=wrap;rounded=0;fontSize=18;fontStyle=1;" parent="1" vertex="1">
                    <mxGeometry x="250" y="20" width="600" height="40" as="geometry"/>
                </mxCell>
                <mxCell id="start" value="Incoming Record&lt;br&gt;(Key, GenericRecord, Timestamp)" style="ellipse;whiteSpace=wrap;html=1;fillColor=#dae8fc;strokeColor=#6c8ebf;" parent="1" vertex="1">
                    <mxGeometry x="450" y="80" width="200" height="70" as="geometry"/>
                </mxCell>
                <mxCell id="decision-valid-ts" value="1. Is Record Timestamp Valid?" style="rhombus;whiteSpace=wrap;html=1;fillColor=#fff2cc;strokeColor=#d6b656;" parent="1" vertex="1">
                    <mxGeometry x="462.5" y="180" width="175" height="100" as="geometry"/>
                </mxCell>
                <mxCell id="path-invalid-ts-outcome" value="Forward: (Record, isLate=false)&lt;br&gt;&lt;i&gt;(Log warning)&lt;/i&gt;" style="rounded=0;whiteSpace=wrap;html=1;fillColor=#d5e8d4;strokeColor=#82b366;" parent="1" vertex="1">
                    <mxGeometry x="200" y="290" width="200" height="70" as="geometry"/>
                </mxCell>
                <mxCell id="calculations" value="2. Calculate:&lt;br&gt;- Window End Time&lt;br&gt;- Window Close Time&lt;br&gt;- Get Current Stream Time" style="rounded=0;whiteSpace=wrap;html=1;fillColor=#d5e8d4;strokeColor=#82b366;align=left;spacingLeft=5;" parent="1" vertex="1">
                    <mxGeometry x="450" y="310" width="200" height="100" as="geometry"/>
                </mxCell>
                <mxCell id="decision-is-late" value="3. Is streamTime &amp;gt; windowCloseTime?" style="rhombus;whiteSpace=wrap;html=1;fillColor=#fff2cc;strokeColor=#d6b656;" parent="1" vertex="1">
                    <mxGeometry x="450" y="440" width="200" height="100" as="geometry"/>
                </mxCell>
                <mxCell id="path-not-late-outcome" value="Forward: (Record, isLate=false)&lt;br&gt;&lt;i&gt;(Log NOT LATE)&lt;/i&gt;" style="rounded=0;whiteSpace=wrap;html=1;fillColor=#d5e8d4;strokeColor=#82b366;" parent="1" vertex="1">
                    <mxGeometry x="700" y="550" width="200" height="70" as="geometry"/>
                </mxCell>
                <mxCell id="end" value="Output: Pair&lt;GenericRecord, Boolean&gt;" style="ellipse;whiteSpace=wrap;html=1;fillColor=#dae8fc;strokeColor=#6c8ebf;" parent="1" vertex="1">
                    <mxGeometry x="450" y="680" width="200" height="70" as="geometry"/>
                </mxCell>
                <mxCell id="edge-start-to-decision-valid-ts" style="endArrow=classic;html=1;rounded=0;" parent="1" source="start" target="decision-valid-ts" edge="1">
                    <mxGeometry width="50" height="50" relative="1" as="geometry"/>
                </mxCell>
                <mxCell id="edge-decision-valid-ts-to-invalid-outcome" style="endArrow=classic;html=1;rounded=0;entryX=0.5;entryY=0;entryDx=0;entryDy=0;" parent="1" source="decision-valid-ts" target="path-invalid-ts-outcome" edge="1">
                    <mxGeometry width="50" height="50" relative="1" as="geometry">
                        <mxPoint x="452.5" y="230" as="sourcePoint"/>
                        <mxPoint x="300" y="280" as="targetPoint"/>
                        <Array as="points">
                            <mxPoint x="300" y="230"/>
                        </Array>
                    </mxGeometry>
                </mxCell>
                <mxCell id="label-decision-valid-ts-to-invalid-outcome" value="No (Invalid)" style="edgeLabel;html=1;align=center;verticalAlign=middle;resizable=0;points=[];fontSize=9;" parent="edge-decision-valid-ts-to-invalid-outcome" vertex="1" connectable="0">
                    <mxGeometry x="-0.15" y="1" relative="1" as="geometry"/>
                </mxCell>
                <mxCell id="edge-invalid-outcome-to-end" style="endArrow=classic;html=1;rounded=0;entryX=0;entryY=0.5;entryDx=0;entryDy=0;" parent="1" source="path-invalid-ts-outcome" target="end" edge="1">
                    <mxGeometry width="50" height="50" relative="1" as="geometry">
                        <mxPoint x="300" y="370" as="sourcePoint"/>
                        <mxPoint x="440" y="715" as="targetPoint"/>
                        <Array as="points">
                            <mxPoint x="300" y="715"/>
                        </Array>
                    </mxGeometry>
                </mxCell>
                <mxCell id="edge-decision-valid-ts-to-calculations" style="endArrow=classic;html=1;rounded=0;entryX=0.5;entryY=0;entryDx=0;entryDy=0;" parent="1" source="decision-valid-ts" target="calculations" edge="1">
                    <mxGeometry width="50" height="50" relative="1" as="geometry">
                        <mxPoint x="647.5" y="230" as="sourcePoint"/>
                        <mxPoint x="550" y="300" as="targetPoint"/>
                    </mxGeometry>
                </mxCell>
                <mxCell id="label-decision-valid-ts-to-calculations" value="Yes (Valid)" style="edgeLabel;html=1;align=center;verticalAlign=middle;resizable=0;points=[];fontSize=9;" parent="edge-decision-valid-ts-to-calculations" vertex="1" connectable="0">
                    <mxGeometry x="0.1" y="1" relative="1" as="geometry"/>
                </mxCell>
                <mxCell id="edge-calculations-to-decision-is-late" style="endArrow=classic;html=1;rounded=0;" parent="1" source="calculations" target="decision-is-late" edge="1">
                    <mxGeometry width="50" height="50" relative="1" as="geometry"/>
                </mxCell>
                <mxCell id="edge-decision-is-late-to-is-late-outcome" style="endArrow=classic;html=1;rounded=0;entryX=0.5;entryY=0;entryDx=0;entryDy=0;" parent="1" source="decision-is-late" target="path-is-late-outcome" edge="1">
                    <mxGeometry width="50" height="50" relative="1" as="geometry">
                        <mxPoint x="440" y="490" as="sourcePoint"/>
                        <mxPoint x="300" y="540" as="targetPoint"/>
                        <Array as="points">
                            <mxPoint x="300" y="490"/>
                        </Array>
                    </mxGeometry>
                </mxCell>
                <mxCell id="label-decision-is-late-to-is-late-outcome" value="Yes (Late)" style="edgeLabel;html=1;align=center;verticalAlign=middle;resizable=0;points=[];fontSize=9;" parent="edge-decision-is-late-to-is-late-outcome" vertex="1" connectable="0">
                    <mxGeometry x="-0.15" y="1" relative="1" as="geometry"/>
                </mxCell>
                <mxCell id="edge-decision-is-late-to-not-late-outcome" style="endArrow=classic;html=1;rounded=0;entryX=0.5;entryY=0;entryDx=0;entryDy=0;" parent="1" source="decision-is-late" target="path-not-late-outcome" edge="1">
                    <mxGeometry width="50" height="50" relative="1" as="geometry">
                        <mxPoint x="660" y="490" as="sourcePoint"/>
                        <mxPoint x="800" y="540" as="targetPoint"/>
                        <Array as="points">
                            <mxPoint x="800" y="490"/>
                        </Array>
                    </mxGeometry>
                </mxCell>
                <mxCell id="label-decision-is-late-to-not-late-outcome" value="No (Not Late)" style="edgeLabel;html=1;align=center;verticalAlign=middle;resizable=0;points=[];fontSize=9;" parent="edge-decision-is-late-to-not-late-outcome" vertex="1" connectable="0">
                    <mxGeometry x="0.15" y="1" relative="1" as="geometry"/>
                </mxCell>
                <mxCell id="edge-not-late-outcome-to-end" style="endArrow=classic;html=1;rounded=0;entryX=1;entryY=0.5;entryDx=0;entryDy=0;" parent="1" source="path-not-late-outcome" target="end" edge="1">
                    <mxGeometry width="50" height="50" relative="1" as="geometry">
                        <mxPoint x="800" y="630" as="sourcePoint"/>
                        <mxPoint x="660" y="715" as="targetPoint"/>
                        <Array as="points">
                            <mxPoint x="800" y="715"/>
                        </Array>
                    </mxGeometry>
                </mxCell>
                <mxCell id="path-is-late-outcome" value="Forward: (Record, isLate=true)&lt;br&gt;&lt;i&gt;(Log LATE)&lt;/i&gt;" style="rounded=0;whiteSpace=wrap;html=1;fillColor=#d5e8d4;strokeColor=#82b366;" parent="1" vertex="1">
                    <mxGeometry x="200" y="550" width="200" height="70" as="geometry"/>
                </mxCell>
            </root>
        </mxGraphModel>
    </diagram>
</mxfile>